<?xml version="1.0" encoding="UTF-8"?>
<svg xmlns="http://www.w3.org/2000/svg" viewBox="0 0 64 64" width="512" height="512"><g id="Icon"><path d="M59,26H54.72412A23.25276,23.25276,0,0,0,52.311,20.18115l3.02587-3.03369a3.00481,3.00481,0,0,0,0-4.23437l-4.24951-4.25a3.06346,3.06346,0,0,0-4.2334-.001L43.81836,11.689A23.24188,23.24188,0,0,0,38,9.27588V5a3.00328,3.00328,0,0,0-3-3H29a3.00328,3.00328,0,0,0-3,3V9.27588A23.24188,23.24188,0,0,0,20.18164,11.689L17.14746,8.66309a3.06276,3.06276,0,0,0-4.23437,0l-4.25,4.24951a3.005,3.005,0,0,0-.001,4.2334L11.689,20.18115A23.25276,23.25276,0,0,0,9.27588,26H5a3.00328,3.00328,0,0,0-3,3v6a3.00328,3.00328,0,0,0,3,3H9.27588a23.6432,23.6432,0,0,0,1.28125,3.61865,1.006,1.006,0,0,0,1.61963.29834L16.437,37.65723a.99894.99894,0,0,0,.251-.99366A16.25176,16.25176,0,0,1,16,32,16,16,0,1,1,32,48a16.27466,16.27466,0,0,1-4.67285-.688,1.00145,1.00145,0,0,0-.99512.25147l-4.25,4.26025a1.00659,1.00659,0,0,0,.29932,1.61865A23.55662,23.55662,0,0,0,26,54.72412V59a3.00328,3.00328,0,0,0,3,3h6a3.00328,3.00328,0,0,0,3-3V54.72412A23.24188,23.24188,0,0,0,43.81836,52.311l3.03418,3.02587a3.06276,3.06276,0,0,0,4.23437,0l4.25-4.24951a3.005,3.005,0,0,0,.001-4.2334L52.311,43.81836A23.24188,23.24188,0,0,0,54.72412,38H59a3.00328,3.00328,0,0,0,3-3V29A3.00328,3.00328,0,0,0,59,26Zm1,9a1.0013,1.0013,0,0,1-1,1H53.93994a1.00017,1.00017,0,0,0-.9751.77881,21.30716,21.30716,0,0,1-2.76074,6.65771.9994.9994,0,0,0,.1377,1.23926l3.581,3.5918a.995.995,0,0,1,0,1.40527l-4.25049,4.25a1.01288,1.01288,0,0,1-1.40625-.001L44.67578,50.3418a1.00177,1.00177,0,0,0-1.23926-.1377,21.30716,21.30716,0,0,1-6.65771,2.76074A1.00017,1.00017,0,0,0,36,53.93994V59a1.0013,1.0013,0,0,1-1,1H29a1.0013,1.0013,0,0,1-1-1V53.93994a1.00032,1.00032,0,0,0-.7793-.97558,21.04534,21.04534,0,0,1-2.66162-.79151L27.3335,49.3916A18.25407,18.25407,0,0,0,32,50,18,18,0,1,0,14,32a18.2198,18.2198,0,0,0,.6084,4.65723L11.82617,39.439a21.11669,21.11669,0,0,1-.79053-2.65966A1.00032,1.00032,0,0,0,10.06006,36H5a1.0013,1.0013,0,0,1-1-1V29a1.0013,1.0013,0,0,1,1-1h5.06006a1.00017,1.00017,0,0,0,.9751-.77881,21.30413,21.30413,0,0,1,2.76123-6.6582,1.00005,1.00005,0,0,0-.13819-1.23926l-3.58105-3.59131a.995.995,0,0,1,0-1.40527l4.25049-4.25a1.01476,1.01476,0,0,1,1.40625.001l3.59033,3.58008a.99947.99947,0,0,0,1.23926.1377,21.30716,21.30716,0,0,1,6.65771-2.76074A1.00017,1.00017,0,0,0,28,10.06006V5a1.0013,1.0013,0,0,1,1-1h6a1.0013,1.0013,0,0,1,1,1v5.06006a1.00017,1.00017,0,0,0,.77881.9751,21.30716,21.30716,0,0,1,6.65771,2.76074.99744.99744,0,0,0,1.23926-.1377l3.5918-3.58105a1.01544,1.01544,0,0,1,1.40527,0l4.25,4.25049a.99487.99487,0,0,1-.001,1.40625L50.3418,19.32373a1.00005,1.00005,0,0,0-.13819,1.23926,21.30413,21.30413,0,0,1,2.76123,6.6582A1.00017,1.00017,0,0,0,53.93994,28H59a1.0013,1.0013,0,0,1,1,1ZM43.39111,26.896a1.00689,1.00689,0,0,0-1.65527-.38916l-4.55029,4.55078-3.18213-1.061-1.06055-3.18213,4.55029-4.55029a1.00678,1.00678,0,0,0-.38916-1.65527A9.98544,9.98544,0,0,0,24.26709,32.66211L3.55225,53.377a4.99981,4.99981,0,1,0,7.0708,7.0708L31.33789,39.73291A9.98544,9.98544,0,0,0,43.39111,26.896Zm-3.81445,8.84082a7.95455,7.95455,0,0,1-8.20508,1.918,1.00143,1.00143,0,0,0-1.0249.24121L9.209,59.03369A3,3,0,1,1,4.96631,54.791L26.104,33.65332a.9994.9994,0,0,0,.24121-1.0249A7.98605,7.98605,0,0,1,34.7959,22.1333l-3.7041,3.7041a.9999.9999,0,0,0-.2417,1.02344l1.41406,4.24268a1.00112,1.00112,0,0,0,.63232.63232l4.24268,1.41455a.99787.99787,0,0,0,1.02344-.2417l3.7041-3.70459A7.93778,7.93778,0,0,1,39.57666,35.73682Z"/></g></svg>
