<svg height="512pt" viewBox="-51 0 512 512" width="512pt" xmlns="http://www.w3.org/2000/svg"><path d="m25.632812 460.800781h25.601563v25.597657c0 14.140624 11.460937 25.601562 25.601563 25.601562h307.199218c14.136719 0 25.597656-11.460938 25.597656-25.601562v-409.597657c0-14.140625-11.460937-25.601562-25.597656-25.601562h-25.601562v-25.597657c0-14.140624-11.460938-25.601562-25.597656-25.601562h-238.933594c-.179688 0-.34375.09375-.523438.101562-.757812.050782-1.507812.199219-2.226562.445313-.265625.09375-.519532.160156-.777344.28125-.933594.410156-1.785156.988281-2.507812 1.707031l-85.332032 85.332032c-.714844.726562-1.292968 1.574218-1.707031 2.5-.121094.265624-.1875.53125-.28125.804687-.246094.707031-.394531 1.445313-.4375 2.191406 0 .1875-.109375.351563-.109375.539063v341.296875c0 6.796875 2.703125 13.3125 7.511719 18.113281 4.808593 4.804688 11.328125 7.496094 18.121093 7.488281zm358.402344-392.535156c4.710938 0 8.53125 3.820313 8.53125 8.535156v409.597657c0 4.714843-3.820312 8.535156-8.53125 8.535156h-307.199218c-4.714844 0-8.535157-3.820313-8.535157-8.535156v-25.597657h264.535157c14.136718 0 25.597656-11.460937 25.597656-25.601562v-366.933594zm-42.667968-42.664063v409.597657c0 4.714843-3.820313 8.535156-8.53125 8.535156h-307.203126c-4.710937 0-8.53125-3.820313-8.53125-8.535156v-332.800781h59.734376c14.136718 0 25.597656-11.460938 25.597656-25.597657v-59.734375h230.402344c4.710937 0 8.53125 3.820313 8.53125 8.535156zm-256 3.53125v47.667969c0 4.710938-3.820313 8.53125-8.53125 8.53125h-47.667969zm0 0"/><g fill-rule="evenodd"><path d="m59.765625 145.066406c-4.710937 0-8.53125 3.820313-8.53125 8.535156 0 4.710938 3.820313 8.53125 8.53125 8.53125h238.933594c4.714843 0 8.535156-3.820312 8.535156-8.53125 0-4.714843-3.820313-8.535156-8.535156-8.535156zm0 0"/><path d="m298.699219 315.734375h-238.933594c-4.710937 0-8.53125 3.820313-8.53125 8.53125 0 4.714844 3.820313 8.535156 8.53125 8.535156h238.933594c4.714843 0 8.535156-3.820312 8.535156-8.535156 0-4.710937-3.820313-8.53125-8.535156-8.53125zm0 0"/><path d="m298.699219 187.734375h-42.664063c-4.714844 0-8.535156 3.820313-8.535156 8.53125 0 4.714844 3.820312 8.535156 8.535156 8.535156h42.664063c4.714843 0 8.535156-3.820312 8.535156-8.535156 0-4.710937-3.820313-8.53125-8.535156-8.53125zm0 0"/><path d="m221.902344 196.265625c0-4.710937-3.820313-8.53125-8.535156-8.53125h-153.601563c-4.710937 0-8.53125 3.820313-8.53125 8.53125 0 4.714844 3.820313 8.535156 8.53125 8.535156h153.601563c4.714843 0 8.535156-3.820312 8.535156-8.535156zm0 0"/><path d="m162.167969 358.398438h-8.535157c-4.710937 0-8.53125 3.820312-8.53125 8.535156 0 4.710937 3.820313 8.53125 8.53125 8.53125h8.535157c4.710937 0 8.53125-3.820313 8.53125-8.53125 0-4.714844-3.820313-8.535156-8.53125-8.535156zm0 0"/><path d="m110.96875 358.398438h-51.203125c-4.710937 0-8.53125 3.820312-8.53125 8.535156 0 4.710937 3.820313 8.53125 8.53125 8.53125h51.203125c4.710938 0 8.53125-3.820313 8.53125-8.53125 0-4.714844-3.820312-8.535156-8.53125-8.535156zm0 0"/><path d="m59.765625 247.464844h42.667969c4.714844 0 8.535156-3.820313 8.535156-8.53125 0-4.714844-3.820312-8.535156-8.535156-8.535156h-42.667969c-4.710937 0-8.53125 3.820312-8.53125 8.535156 0 4.710937 3.820313 8.53125 8.53125 8.53125zm0 0"/><path d="m298.699219 230.398438h-153.597657c-4.714843 0-8.535156 3.820312-8.535156 8.535156 0 4.710937 3.820313 8.53125 8.535156 8.53125h153.597657c4.714843 0 8.535156-3.820313 8.535156-8.53125 0-4.714844-3.820313-8.535156-8.535156-8.535156zm0 0"/><path d="m59.765625 290.132812h25.601563c4.714843 0 8.535156-3.820312 8.535156-8.53125 0-4.714843-3.820313-8.535156-8.535156-8.535156h-25.601563c-4.710937 0-8.53125 3.820313-8.53125 8.535156 0 4.710938 3.820313 8.53125 8.53125 8.53125zm0 0"/><path d="m128.035156 290.132812h102.398438c4.714844 0 8.535156-3.820312 8.535156-8.53125 0-4.714843-3.820312-8.535156-8.535156-8.535156h-102.398438c-4.714844 0-8.535156 3.820313-8.535156 8.535156 0 4.710938 3.820312 8.53125 8.535156 8.53125zm0 0"/><path d="m298.699219 273.066406h-25.597657c-4.714843 0-8.535156 3.820313-8.535156 8.535156 0 4.710938 3.820313 8.53125 8.535156 8.53125h25.597657c4.714843 0 8.535156-3.820312 8.535156-8.53125 0-4.714843-3.820313-8.535156-8.535156-8.535156zm0 0"/></g></svg>