<?xml version="1.0" encoding="utf-8"?>
<svg version="1.1" id="Layer_1"
	xmlns="http://www.w3.org/2000/svg"
	xmlns:xlink="http://www.w3.org/1999/xlink" x="0px" y="0px" viewBox="0 0 235 44" style="enable-background:new 0 0 235 44;" xml:space="preserve">
	<style type="text/css">
	.icon{fill:#00CCFF;}
	.text{fill:#102240;}
	</style>
	<g id="icon_with_text">
		<g>
			<path class="icon" d="M15.5,32.6C15.5,32.6,15.5,32.6,15.5,32.6z M22.9,0C15.8,6,9.7,13.6,5.6,22c0.3,0.7,0.7,1.3,1,2l0,0l0,0
			l0.2,0.4l0,0l0.2,0.4l0,0l0,0l0,0l0,0c1.6,2.8,3.4,5.6,5.4,8.1l0,0l0,0l0,0l0,0l0,0l0,0l0,0l0,0l0,0l0,0l0,0l0,0l0,0l0,0l0,0l0,0
			l0,0l0,0l0,0l0,0l0,0l0,0l0,0l0,0l0,0l0,0c0.2,0.3,0.4,0.6,0.7,0.8c0.3,0.4,0.7,0.8,1,1.2c1.9-5.8,4.8-11.2,8.4-16.1
			c3,4,5.5,8.4,7.4,13.2c0.4,1,0.7,1.9,1.1,2.9c0.3-0.4,0.7-0.8,1-1.2c0.3-0.4,0.6-0.7,0.9-1.1l0,0l0,0l0,0l0,0l0,0l0,0l0,0l0,0l0,0
			v0c2-2.6,3.8-5.3,5.4-8.1l0,0l0,0l0,0l0.1-0.1l0,0l0,0l0,0l0,0l0,0l0,0l0,0l0,0l0.2-0.4l0,0l0.1-0.2l0,0l0,0l0,0
			c0.3-0.6,0.6-1.1,0.9-1.7C36,13.6,30,6,22.9,0L22.9,0z M8.6,22c3.7-6.9,8.5-13.2,14.3-18.4C28.7,8.8,33.6,15.1,37.2,22
			c-1.5,2.8-3.2,5.6-5.1,8.1c-2-4.6-4.5-8.9-7.5-12.9c-0.6-0.7-1.1-1.4-1.7-2.1c-0.6,0.7-1.2,1.4-1.7,2.1l0,0l0,0
			c-3,3.9-5.6,8.2-7.5,12.9C11.8,27.6,10.1,24.8,8.6,22z"/>
			<path class="icon" d="M16.2,37.6c0.3,0.3,0.5,0.6,0.8,0.9c0.6,0.7,1.2,1.3,1.9,1.9c0.6,0.6,1.3,1.3,2,1.9c0.7,0.6,1.4,1.2,2,1.8
			c0.7-0.6,1.4-1.2,2-1.8c0.7-0.6,1.3-1.2,2-1.9c0.6-0.6,1.3-1.3,1.9-1.9c0.3-0.3,0.5-0.6,0.8-0.9l-0.4-1.3
			c-0.2-0.6-0.4-1.1-0.6-1.6l0,0c-0.6,0.7-1.2,1.3-1.8,2c-0.6,0.7-1.2,1.3-1.9,1.9c-0.6,0.6-1.3,1.2-2,1.8c-0.7-0.6-1.3-1.2-2-1.8
			c-0.6-0.6-1.3-1.3-1.9-1.9c-0.6-0.7-1.2-1.3-1.8-2l0,0c-0.2,0.5-0.4,1.1-0.6,1.6L16.2,37.6z M41.5,19.4L41.5,19.4
			c0.4-0.9,0.8-1.7,1.1-2.6c0.3-0.8,0.7-1.7,1-2.5c0.3-0.8,0.6-1.7,0.9-2.6c0.3-0.9,0.5-1.7,0.8-2.6c0.2-0.9,0.5-1.7,0.7-2.6
			c-0.8-0.3-1.7-0.6-2.6-0.8c-0.9-0.3-1.7-0.5-2.6-0.7c-0.9-0.2-1.7-0.4-2.6-0.6c-0.9-0.2-1.8-0.4-2.6-0.5c-0.9-0.2-1.8-0.3-2.7-0.4
			c-1.1-0.2-2.2-0.3-3.2-0.4c1,1,1.9,2,2.8,3c0.8,0.1,1.6,0.2,2.5,0.4c0.9,0.2,1.8,0.3,2.6,0.5c0.9,0.2,1.7,0.4,2.6,0.6
			c0.9,0.2,1.7,0.5,2.6,0.7c-0.2,0.9-0.5,1.7-0.8,2.6c-0.3,0.9-0.6,1.7-0.9,2.6c-0.3,0.8-0.6,1.7-1,2.5c-0.1,0.2-0.1,0.3-0.2,0.5
			C40.4,17.4,40.9,18.4,41.5,19.4z M2.6,5.7C1.7,6,0.8,6.3,0,6.6c0.2,0.9,0.4,1.8,0.7,2.6c0.2,0.9,0.5,1.7,0.8,2.6
			c0.3,0.9,0.6,1.7,0.9,2.6c0.3,0.8,0.6,1.7,1,2.5c0.3,0.8,0.7,1.7,1.1,2.5l0,0.1c0.5-1,1.1-2,1.7-2.9c-0.1-0.2-0.1-0.3-0.2-0.5
			c-0.3-0.8-0.7-1.7-1-2.5c-0.3-0.8-0.6-1.7-0.9-2.6c-0.3-0.9-0.5-1.7-0.8-2.6c0.9-0.3,1.7-0.5,2.6-0.7C6.7,7.4,7.5,7.2,8.4,7
			c0.9-0.2,1.8-0.4,2.6-0.5c0.8-0.1,1.6-0.3,2.5-0.4c0.9-1,1.8-2.1,2.8-3c-1.1,0.1-2.2,0.2-3.2,0.4c-0.9,0.1-1.8,0.3-2.7,0.4
			C9.5,4,8.6,4.2,7.8,4.4h0C6.9,4.6,6,4.8,5.2,5C4.3,5.2,3.4,5.5,2.6,5.7z"/>
		</g>
		<path class="text" d="M69.8,11.3h-3.6l-10,21.5h2.1c1,0,1.7-0.5,2.1-1.4L68.1,15l7.6,16.3c0.4,1,1.2,1.4,2.1,1.4h2.1
		C79.9,32.7,69.8,11.3,69.8,11.3z M180.2,22v-1.4c-6.7,0-13.4,0-20,0v2.8h19C179.9,23.4,180.2,22.7,180.2,22z M101.7,11.3
		c-1,0-1.7,0.5-2.1,1.4L92,29l-7.6-16.3c-0.4-1-1.2-1.4-2.1-1.4h-2.1l10,21.5h3.6l10-21.5C103.9,11.3,101.7,11.3,101.7,11.3z
		 M122.5,11.3h-7.2c-5,0-7.5,2.5-7.5,7.5v6.4c0,5,2.5,7.5,7.5,7.5h7.2c5,0,7.5-2.5,7.5-7.5v-6.4C130,13.8,127.5,11.3,122.5,11.3z
		 M126.4,25.2c0,3.1-1.6,4.7-4.7,4.7H116c-3.1,0-4.7-1.6-4.7-4.7v-6.4c0-3.1,1.6-4.7,4.7-4.7h5.7c3.1,0,4.7,1.6,4.7,4.7
		C126.4,18.8,126.4,25.2,126.4,25.2z M153.9,29.9h-14.3V12.7c0-1-0.5-1.4-1.4-1.4H136v21.5h19.3v-1.4
		C155.3,30.4,154.9,29.9,153.9,29.9L153.9,29.9z M179.2,29.9h-19v2.9h20.4v-1.4C180.6,30.4,180.1,29.9,179.2,29.9z M178.8,14.1
		c1,0,1.4-0.5,1.4-1.4v-1.4h-20v2.9H178.8L178.8,14.1z M205.6,11.3c-1,0-1.4,0.5-1.4,1.4v15.6l-14.3-17h-3.6v21.5h2.1
		c1,0,1.4-0.5,1.4-1.4V15.7l14.3,17h3.6V11.3C207.8,11.3,205.6,11.3,205.6,11.3z M228.9,20.6h-8.6c-2.1,0-3.2-1.1-3.2-3.2
		c0-2.1,1.1-3.2,3.2-3.2h12.5c1,0,1.4-0.5,1.4-1.4v-1.4h-14.7c-4.1,0-6.1,2-6.1,6.1s2,6.1,6.1,6.1h8.6c2.1,0,3.2,1.1,3.2,3.2
		c0,2.1-1.1,3.2-3.2,3.2h-12.9c-1,0-1.4,0.5-1.4,1.4v1.4h15c4.1,0,6.1-2,6.1-6.1C235,22.6,233,20.6,228.9,20.6L228.9,20.6z"/>
	</g>
</svg>
